# xmcd
# 
# Track frame offsets:
#     150
#     10435
#     27104
#     40941
#     51672
#     65030
#     77747
#     97204
#     109450
#     121951
#     144121
# 
# Disc length: 2117
# 
# Revision: 0
# Processed by: cddbd v1.5.2PL0 Copyright (c) Steve Scherf et al.
# Submitted via: fre:ac v1.0.27
# 
DISCID=9d08430b
DTITLE=Frank Critelli - Before You Break
DYEAR=2006
DGENRE=Folk
TTITLE0=Downhill
TTITLE1=Horndog
TTITLE2=It's The Way
TTITLE3=Ahead or Behind
TTITLE4=Reflections on a Friendship Heading South
TTITLE5=Strange Opera
TTITLE6=Nothing To Say
TTITLE7=The Only Question Worth Asking
TTITLE8=Before You Break
TTITLE9=The Moment of Creation
TTITLE10=coming into los angeles(?)
EXTD=
EXTT0=
EXTT1=
EXTT2=
EXTT3=
EXTT4=
EXTT5=
EXTT6=
EXTT7=
EXTT8=
EXTT9=
EXTT10=
PLAYORDER=
